<svg width="308pt" height="34pt" viewBox="0 0 308 34" xmlns="http://www.w3.org/2000/svg"><g id="fontsvg1695959775216" stroke-linecap="round" fill-rule="evenodd" fill="#ffffff"><path d="M 183.75 33.75 L 168.75 33.75 L 168.75 30 L 165 30 L 165 3.75 L 168.75 3.75 L 168.75 0 L 183.75 0 L 183.75 3.75 L 187.5 3.75 L 187.5 11.25 L 180 11.25 L 180 3.75 L 172.5 3.75 L 172.5 30 L 180 30 L 180 22.5 L 187.5 22.5 L 187.5 30 L 183.75 30 L 183.75 33.75 Z M 90 33.75 L 82.5 33.75 L 82.5 0 L 101.25 0 L 101.25 3.75 L 105 3.75 L 105 15 L 101.25 15 L 101.25 18.75 L 105 18.75 L 105 33.75 L 97.5 33.75 L 97.5 18.75 L 90 18.75 L 90 33.75 Z M 232.5 33.75 L 225 33.75 L 225 0 L 243.75 0 L 243.75 3.75 L 247.5 3.75 L 247.5 15 L 243.75 15 L 243.75 18.75 L 247.5 18.75 L 247.5 33.75 L 240 33.75 L 240 18.75 L 232.5 18.75 L 232.5 33.75 Z M 262.5 33.75 L 255 33.75 L 255 0 L 273.75 0 L 273.75 3.75 L 277.5 3.75 L 277.5 15 L 273.75 15 L 273.75 18.75 L 277.5 18.75 L 277.5 33.75 L 270 33.75 L 270 18.75 L 262.5 18.75 L 262.5 33.75 Z M 18.75 33.75 L 3.75 33.75 L 3.75 30 L 0 30 L 0 22.5 L 7.5 22.5 L 7.5 30 L 15 30 L 15 3.75 L 11.25 3.75 L 11.25 0 L 22.5 0 L 22.5 30 L 18.75 30 L 18.75 33.75 Z M 37.5 33.75 L 30 33.75 L 30 3.75 L 33.75 3.75 L 33.75 0 L 48.75 0 L 48.75 3.75 L 52.5 3.75 L 52.5 33.75 L 45 33.75 L 45 22.5 L 37.5 22.5 L 37.5 33.75 Z M 75 33.75 L 60 33.75 L 60 30 L 63.75 30 L 63.75 3.75 L 60 3.75 L 60 0 L 75 0 L 75 3.75 L 71.25 3.75 L 71.25 30 L 75 30 L 75 33.75 Z M 131.25 33.75 L 116.25 33.75 L 116.25 30 L 112.5 30 L 112.5 3.75 L 116.25 3.75 L 116.25 0 L 131.25 0 L 131.25 3.75 L 135 3.75 L 135 30 L 131.25 30 L 131.25 33.75 Z M 213.75 33.75 L 198.75 33.75 L 198.75 30 L 195 30 L 195 3.75 L 198.75 3.75 L 198.75 0 L 213.75 0 L 213.75 3.75 L 217.5 3.75 L 217.5 30 L 213.75 30 L 213.75 33.75 Z M 303.75 33.75 L 288.75 33.75 L 288.75 30 L 285 30 L 285 3.75 L 288.75 3.75 L 288.75 0 L 303.75 0 L 303.75 3.75 L 307.5 3.75 L 307.5 30 L 303.75 30 L 303.75 33.75 Z M 120 30 L 127.5 30 L 127.5 3.75 L 120 3.75 L 120 30 Z M 202.5 30 L 210 30 L 210 3.75 L 202.5 3.75 L 202.5 30 Z M 292.5 30 L 300 30 L 300 3.75 L 292.5 3.75 L 292.5 30 Z M 37.5 18.75 L 45 18.75 L 45 3.75 L 37.5 3.75 L 37.5 18.75 Z M 90 15 L 97.5 15 L 97.5 3.75 L 90 3.75 L 90 15 Z M 232.5 15 L 240 15 L 240 3.75 L 232.5 3.75 L 232.5 15 Z M 262.5 15 L 270 15 L 270 3.75 L 262.5 3.75 L 262.5 15 Z" vector-effect="non-scaling-stroke"/></g></svg>